<?xml version="1.0" encoding="UTF-8" standalone="no"?>
<!DOCTYPE svg PUBLIC "-//W3C//DTD SVG 1.1//EN" "http://www.w3.org/Graphics/SVG/1.1/DTD/svg11.dtd">
<svg xmlns="http://www.w3.org/2000/svg" version="1.1" viewBox="0.00 0.00 442.00 148.00">
<path fill="#ffffff" d="
  M 367.89 79.41
  Q 392.60 55.35 417.54 31.79
  C 422.26 27.33 430.10 32.46 427.60 38.83
  Q 426.90 40.61 424.24 43.18
  Q 396.50 69.86 368.63 96.55
  Q 367.74 97.39 367.75 98.62
  Q 367.77 114.13 367.73 130.44
  C 367.70 139.12 354.77 139.84 354.76 128.70
  Q 354.73 73.98 354.76 19.25
  C 354.76 9.95 367.72 9.56 367.74 21.23
  Q 367.76 50.32 367.75 79.35
  A 0.08 0.08 0.0 0 0 367.89 79.41
  Z"
/>
<path fill="#ffffff" d="
  M 27.93 35.14
  A 5.84 5.84 0.0 0 1 22.09 40.98
  A 5.84 5.84 0.0 0 1 16.25 35.14
  A 5.84 5.84 0.0 0 1 22.09 29.30
  A 5.84 5.84 0.0 0 1 27.93 35.14
  Z"
/>
<path fill="#ffffff" d="
  M 303.82 52.23
  C 266.98 29.43 232.71 69.06 254.21 103.83
  C 257.17 108.61 254.32 115.18 248.26 114.23
  C 244.84 113.70 243.08 110.49 241.23 107.12
  C 226.04 79.46 237.60 44.57 268.21 34.45
  Q 278.74 30.97 291.32 33.55
  C 297.92 34.91 317.03 41.34 317.85 49.15
  C 318.22 52.67 315.86 55.66 312.31 55.94
  C 309.19 56.19 306.63 53.97 303.82 52.23
  Z"
/>
<path fill="#ffffff" d="
  M 183.8343 103.4457
  A 6.36 6.36 0.0 0 1 175.3506 106.4333
  L 175.1702 106.3468
  A 6.36 6.36 0.0 0 1 172.1826 97.8631
  L 200.6657 38.4143
  A 6.36 6.36 0.0 0 1 209.1494 35.4267
  L 209.3298 35.5132
  A 6.36 6.36 0.0 0 1 212.3174 43.9969
  L 183.8343 103.4457
  Z"
/>
<path fill="#ffffff" d="
  M 112.51 113.29
  L 131.49 82.73
  A 1.19 1.18 -42.2 0 0 131.55 81.58
  Q 123.41 64.72 115.60 47.75
  C 111.37 38.56 122.96 33.41 127.57 43.10
  Q 146.48 82.87 165.30 122.69
  C 166.63 125.50 168.18 128.23 167.67 131.23
  C 166.56 137.69 158.27 137.79 155.63 132.34
  Q 147.03 114.51 138.76 96.84
  A 0.43 0.43 0.0 0 0 138.00 96.79
  Q 127.73 113.35 117.69 129.44
  C 114.28 134.89 107.66 133.48 104.86 127.96
  Q 84.64 88.18 64.66 48.28
  C 59.72 38.41 71.60 33.42 75.44 41.06
  Q 93.61 77.19 111.91 113.26
  Q 112.19 113.81 112.51 113.29
  Z"
/>
<path fill="#ffffff" d="
  M 29.8105 129.1799
  A 6.38 6.38 0.0 0 1 23.4977 135.6264
  L 23.2577 135.6289
  A 6.38 6.38 0.0 0 1 16.8112 129.3161
  L 16.0495 56.5801
  A 6.38 6.38 0.0 0 1 22.3623 50.1336
  L 22.6023 50.1311
  A 6.38 6.38 0.0 0 1 29.0488 56.4439
  L 29.8105 129.1799
  Z"
/>
<path fill="#ffffff" d="
  M 427.8296 127.0342
  A 6.32 6.32 0.0 0 1 426.5085 135.8739
  L 426.3156 136.0166
  A 6.32 6.32 0.0 0 1 417.4759 134.6955
  L 391.9104 100.1458
  A 6.32 6.32 0.0 0 1 393.2315 91.3061
  L 393.4244 91.1634
  A 6.32 6.32 0.0 0 1 402.2641 92.4845
  L 427.8296 127.0342
  Z"
/>
<path fill="#ffffff" d="
  M 289.38 120.49
  C 295.69 118.82 300.32 116.43 306.54 112.59
  C 314.35 107.78 320.29 117.93 313.70 122.97
  C 308.38 127.04 292.81 136.05 286.24 132.26
  C 282.66 130.20 281.97 125.57 284.90 122.61
  Q 286.17 121.34 289.38 120.49
  Z"
/>
</svg>
